<svg xmlns="http://www.w3.org/2000/svg" viewBox="0 0 1180 220" role="img" aria-labelledby="engisLogoTitle engisLogoDesc">
  <title id="engisLogoTitle">EnGIS logo</title>
  <desc id="engisLogoDesc">EnGIS Global Geospatial Innovations company logo</desc>
  <defs>
    <linearGradient id="markGreen" x1="0%" y1="0%" x2="100%" y2="100%">
      <stop offset="0%" stop-color="#8dbd63" />
      <stop offset="100%" stop-color="#5d9851" />
    </linearGradient>
    <linearGradient id="markBlue" x1="0%" y1="0%" x2="100%" y2="100%">
      <stop offset="0%" stop-color="#5d97cb" />
      <stop offset="100%" stop-color="#2e5d8d" />
    </linearGradient>
    <linearGradient id="textBlend" x1="0%" y1="0%" x2="100%" y2="0%">
      <stop offset="0%" stop-color="#77ad53" />
      <stop offset="62%" stop-color="#4b9667" />
      <stop offset="100%" stop-color="#356da4" />
    </linearGradient>
    <filter id="softShadow" x="-10%" y="-10%" width="120%" height="130%">
      <feDropShadow dx="0" dy="5" stdDeviation="4" flood-color="#2d566d" flood-opacity="0.18" />
    </filter>
  </defs>

  <g filter="url(#softShadow)">
    <path
      d="M56 16h200c26.51 0 48 21.49 48 48v73c0 3.31-2.69 6-6 6h-46c-3.31 0-6-2.69-6-6V84c0-13.25-10.75-24-24-24H90c-13.25 0-24 10.75-24 24v53c0 3.31-2.69 6-6 6H14c-3.31 0-6-2.69-6-6V64c0-26.51 21.49-48 48-48Z"
      fill="url(#markGreen)"
    />
    <path
      d="M14 154h46c3.31 0 6 2.69 6 6v52c0 13.25 10.75 24 24 24h132c13.25 0 24-10.75 24-24v-52c0-3.31 2.69-6 6-6h46c3.31 0 6 2.69 6 6v52c0 26.51-21.49 48-48 48H56c-26.51 0-48-21.49-48-48v-52c0-3.31 2.69-6 6-6Z"
      fill="url(#markBlue)"
    />
  </g>

  <g fill="url(#textBlend)">
    <path d="M388 36h176c9.94 0 18 8.06 18 18v9c0 9.94-8.06 18-18 18H440v38h118c9.94 0 18 8.06 18 18v8c0 9.94-8.06 18-18 18H440v39h126c9.94 0 18 8.06 18 18v8c0 9.94-8.06 18-18 18H388c-9.94 0-18-8.06-18-18V54c0-9.94 8.06-18 18-18Z"/>
    <path d="M678 82c18.6 0 35.35 3.99 50.25 11.98 14.9 7.99 26.68 19.47 35.35 34.45 8.67 14.98 13 32.83 13 53.57v49c0 9.94-8.06 18-18 18h-16c-9.94 0-18-8.06-18-18v-47.35c0-19.53-5.23-34.43-15.68-44.7-10.45-10.27-25.09-15.4-43.92-15.4-18.83 0-33.73 5.56-44.7 16.68-10.97 11.12-16.45 27.28-16.45 48.48V231c0 9.94-8.06 18-18 18h-16c-9.94 0-18-8.06-18-18V100c0-9.94 8.06-18 18-18h15c9.11 0 16.72 6.79 17.77 15.84l1.23 10.66c8.74-9.55 19.61-16.87 32.62-21.96C648.55 84.55 662.77 82 678 82Z"/>
    <path d="M945 30c20.91 0 40.51 3.73 58.8 11.2 18.29 7.47 34.05 18.25 47.28 32.35 3.57 3.8 5.4 8.93 5.04 14.12-.35 5.19-2.84 10-6.84 13.32l-13.61 11.29c-7.32 6.07-18.12 5.11-24.52-1.93-8.36-9.19-18.38-16.17-30.05-20.93-12.94-5.28-26.92-7.92-41.95-7.92-18.57 0-35.1 3.99-49.59 11.98-14.49 7.99-25.89 19.29-34.19 33.89-8.3 14.61-12.45 31.65-12.45 51.13s4.15 36.61 12.45 51.41c8.3 14.8 19.7 26.2 34.19 34.19 14.49 7.99 31.02 11.98 49.59 11.98 16.42 0 31.88-2.72 46.4-8.16 10.38-3.89 19.49-9.04 27.31-15.46v-42.4H951c-9.94 0-18-8.06-18-18v-7c0-9.94 8.06-18 18-18h93c9.94 0 18 8.06 18 18v81.19c0 5.38-2.42 10.47-6.6 13.89-14.11 11.55-30.3 20.49-48.58 26.82-21.54 7.46-43.55 11.19-66.04 11.19-28.77 0-54.85-6.37-78.25-19.11-23.4-12.74-41.79-30.33-55.16-52.76-13.37-22.43-20.05-47.77-20.05-76.02s6.77-53.5 20.33-75.74c13.56-22.24 32.1-39.73 55.63-52.48C887.81 36.37 914.65 30 945 30Z"/>
    <path d="M1111 36h16c9.94 0 18 8.06 18 18v177c0 9.94-8.06 18-18 18h-16c-9.94 0-18-8.06-18-18V54c0-9.94 8.06-18 18-18Z"/>
  </g>
  <path fill="#3b6ea5" d="M1161.13 246c-16.55 0-32.71-2.48-48.48-7.44-14.85-4.67-27.59-11.07-38.22-19.21-4.36-3.34-6.85-8.49-6.78-13.98.07-5.49 2.68-10.57 7.12-13.79l14.05-10.19c6.55-4.75 15.42-4.56 21.72.42 7.55 5.97 16.14 10.67 25.76 14.09 11.46 4.08 24.06 6.12 37.8 6.12 17.07 0 30.12-2.67 39.15-8 9.03-5.33 13.55-12.71 13.55-22.14 0-8.13-2.88-14.63-8.64-19.49-5.76-4.87-13.33-8.74-22.7-11.62-9.37-2.88-21.96-5.97-37.76-9.28-17.58-3.99-31.88-8.06-42.88-12.22-11.01-4.15-20.41-10.7-28.21-19.65-7.81-8.94-11.71-21.01-11.71-36.19 0-13.28 3.57-25.17 10.72-35.66 7.14-10.49 17.92-18.76 32.31-24.79C1132.13 33.01 1149.8 30 1170.94 30c15.3 0 30.44 1.8 45.4 5.4 11.89 2.86 22.39 6.83 31.49 11.9 4.83 2.69 8.12 7.54 8.92 13.01.8 5.48-.98 11.01-4.77 14.99l-10.87 11.39c-5.65 5.93-14.45 7.3-21.67 3.47-5.67-3.01-11.84-5.39-18.52-7.12-9.89-2.56-19.95-3.84-30.18-3.84-16.25 0-28.46 2.51-36.63 7.53-8.17 5.02-12.26 12.04-12.26 21.05 0 7.61 2.92 13.72 8.77 18.33 5.85 4.61 13.46 8.3 22.83 11.06 9.37 2.77 21.8 5.82 37.29 9.16 17.58 3.99 31.88 8.1 42.88 12.34 11.01 4.24 20.41 10.86 28.21 19.86 7.81 9 11.71 21.16 11.71 36.47 0 13.15-3.66 24.96-10.97 35.41-7.32 10.45-18.39 18.7-33.22 24.75-14.83 6.05-32.87 9.08-54.11 9.08Z"/>
  <text x="372" y="210" fill="#5a80a2" font-family="Montserrat, Arial, sans-serif" font-size="45" font-weight="500" letter-spacing="6">GLOBAL GEOSPATIAL INNOVATIONS</text>
</svg>
